# Blender v2.78 (sub 0) OBJ File: ''
# www.blender.org
mtllib servo.mtl
o Cube.001
v -0.026410 -0.005549 0.018858
v -0.014437 -0.021282 0.018858
v -0.012426 -0.019286 0.018858
v -0.028422 -0.007561 -0.012719
v -0.028422 -0.007561 0.018858
v 0.000041 0.020910 0.018858
v 0.014011 0.006958 -0.012719
v 0.000041 0.020910 -0.012719
v -0.012426 -0.019286 -0.012719
v -0.026352 -0.005447 -0.012921
v -0.014437 -0.021282 -0.012719
v -0.001359 0.019480 -0.016802
v -0.007549 -0.014473 -0.016802
v -0.021483 -0.000615 -0.016965
v 0.014011 0.006958 0.018858
v 0.012612 0.005540 -0.016802
v 0.004943 0.024609 -0.007370
v 0.013441 0.007672 -0.007366
v 0.017660 0.011911 -0.007370
v 0.000687 0.020388 -0.009959
v 0.000687 0.020388 -0.007366
v 0.004943 0.024609 -0.009963
v 0.013441 0.007672 -0.009959
v 0.017660 0.011911 -0.009963
v -0.027666 -0.008029 -0.007370
v -0.019168 -0.024966 -0.007366
v -0.014949 -0.020727 -0.007370
v -0.031922 -0.012250 -0.009959
v -0.031922 -0.012250 -0.007366
v -0.027666 -0.008029 -0.009963
v -0.019168 -0.024966 -0.009959
v -0.014949 -0.020727 -0.009963
v 0.002517 0.007446 -0.025055
v 0.002566 0.006945 -0.011999
v 0.002566 0.006945 -0.025055
v 0.002371 0.007927 -0.025055
v 0.002517 0.007446 -0.011999
v 0.002134 0.008371 -0.025055
v 0.002371 0.007927 -0.011999
v 0.001814 0.008759 -0.025055
v 0.002134 0.008371 -0.011999
v 0.001426 0.009079 -0.025055
v 0.001814 0.008759 -0.011999
v 0.000982 0.009316 -0.025055
v 0.001426 0.009079 -0.011999
v 0.000501 0.009462 -0.025055
v 0.000982 0.009316 -0.011999
v 0.000000 0.009511 -0.025055
v 0.000501 0.009462 -0.011999
v -0.000501 0.009462 -0.025055
v 0.000000 0.009511 -0.011999
v -0.000982 0.009316 -0.025055
v -0.000501 0.009462 -0.011999
v -0.001426 0.009079 -0.025055
v -0.000982 0.009316 -0.011999
v -0.001814 0.008759 -0.025055
v -0.001426 0.009079 -0.011999
v -0.002134 0.008371 -0.025055
v -0.001814 0.008759 -0.011999
v -0.002371 0.007927 -0.025055
v -0.002134 0.008371 -0.011999
v -0.002517 0.007446 -0.025055
v -0.002371 0.007927 -0.011999
v -0.002566 0.006945 -0.025055
v -0.002517 0.007446 -0.011999
v -0.002517 0.006444 -0.025055
v -0.002566 0.006945 -0.011999
v -0.002371 0.005963 -0.025055
v -0.002517 0.006444 -0.011999
v -0.002134 0.005519 -0.025055
v -0.002371 0.005963 -0.011999
v -0.001814 0.005131 -0.025055
v -0.002134 0.005519 -0.011999
v -0.001426 0.004811 -0.025055
v -0.001814 0.005131 -0.011999
v -0.000982 0.004574 -0.025055
v -0.001426 0.004811 -0.011999
v -0.000501 0.004428 -0.025055
v -0.000982 0.004574 -0.011999
v 0.000000 0.004379 -0.025055
v -0.000501 0.004428 -0.011999
v 0.000501 0.004428 -0.025055
v 0.000000 0.004379 -0.011999
v 0.000982 0.004574 -0.025055
v 0.000501 0.004428 -0.011999
v 0.001426 0.004811 -0.025055
v 0.000982 0.004574 -0.011999
v 0.001814 0.005131 -0.025055
v 0.001426 0.004811 -0.011999
v 0.002134 0.005519 -0.025055
v 0.001814 0.005131 -0.011999
v 0.002371 0.005963 -0.025055
v 0.002134 0.005519 -0.011999
v 0.002517 0.006444 -0.011999
v 0.002517 0.006444 -0.025055
v 0.002371 0.005963 -0.011999
vn -0.0000 0.0000 1.0000
vn -0.7003 -0.7138 -0.0000
vn 0.7067 0.7076 0.0000
vn 0.7045 -0.7097 0.0000
vn 0.7045 -0.7097 0.0033
vn -0.7141 0.7001 0.0009
vn -0.7072 0.7070 0.0003
vn -0.7086 0.7056 -0.0036
vn -0.0427 -0.0448 -0.9981
vn 0.0020 -0.0112 -0.9999
vn -0.0477 -0.0486 -0.9977
vn 0.0038 -0.0007 -1.0000
vn 0.0061 -0.0011 -1.0000
vn 0.0099 -0.0018 -0.9999
vn -0.7066 0.7076 -0.0050
vn -0.7072 0.7070 -0.0000
vn -0.3549 -0.3676 -0.8596
vn -0.3528 -0.3669 -0.8608
vn -0.3560 -0.3680 -0.8590
vn 0.7045 -0.7097 0.0045
vn -0.7066 0.7076 -0.0053
vn 0.7045 -0.7097 0.0049
vn 0.7045 -0.7097 0.0051
vn 0.6348 0.6361 -0.4387
vn 0.6346 0.6355 -0.4399
vn 0.6345 0.6354 -0.4401
vn 0.0005 0.0005 1.0000
vn -0.7042 0.7100 -0.0000
vn -0.0005 -0.0005 -1.0000
vn 0.7088 -0.7054 0.0000
vn -0.7061 -0.7082 -0.0000
vn 0.7066 0.7076 0.0000
vn 0.9952 0.0979 0.0000
vn 0.9569 0.2904 0.0000
vn 0.8822 0.4709 0.0000
vn 0.7730 0.6344 0.0000
vn 0.6344 0.7730 0.0000
vn 0.4712 0.8820 0.0000
vn 0.2904 0.9569 0.0000
vn 0.0980 0.9952 0.0000
vn -0.0980 0.9952 -0.0000
vn -0.2904 0.9569 0.0000
vn -0.4713 0.8820 -0.0000
vn -0.4709 0.8822 -0.0000
vn -0.6344 0.7730 -0.0000
vn -0.7730 0.6344 -0.0000
vn -0.8822 0.4709 -0.0000
vn -0.9569 0.2904 -0.0000
vn -0.9952 0.0978 -0.0000
vn -0.9952 0.0979 -0.0000
vn -0.9952 -0.0979 -0.0000
vn -0.9569 -0.2904 -0.0000
vn -0.8822 -0.4709 -0.0000
vn -0.7730 -0.6344 -0.0000
vn -0.6344 -0.7730 -0.0000
vn -0.4712 -0.8820 -0.0000
vn -0.2904 -0.9569 -0.0000
vn -0.0980 -0.9952 -0.0000
vn 0.0980 -0.9952 -0.0000
vn 0.2904 -0.9569 0.0000
vn 0.4713 -0.8820 0.0000
vn 0.4709 -0.8822 0.0000
vn 0.6344 -0.7730 0.0000
vn 0.7730 -0.6344 0.0000
vn 0.8822 -0.4709 0.0000
vn 0.9952 -0.0978 0.0000
vn 0.9952 -0.0979 0.0000
vn 0.9569 -0.2904 0.0000
vn 0.0000 0.0000 -1.0000
vn -0.7071 0.7071 -0.0000
vn 0.0072 -0.0073 -0.9999
vn -0.3517 -0.3665 -0.8614
vn -0.7066 0.7076 -0.0056
vn 0.6348 0.6362 -0.4385
vn 0.9952 0.0977 0.0000
vn -0.9952 -0.0977 -0.0000
usemtl None.002
s 1
f 1//1 2//1 3//1
f 4//2 2//2 5//2
f 6//3 7//3 8//3
f 2//4 9//5 3//4
f 4//6 1//7 10//8
f 10//9 11//10 4//11
f 12//12 13//13 14//14
f 8//15 1//7 6//16
f 9//17 14//18 13//19
f 3//4 7//20 15//4
f 6//1 3//1 15//1
f 8//15 14//21 10//8
f 7//20 13//22 16//23
f 7//24 12//25 8//26
f 17//27 18//27 19//27
f 17//28 20//28 21//28
f 22//29 23//29 20//29
f 19//30 23//30 24//30
f 21//31 23//31 18//31
f 22//32 19//32 24//32
f 25//27 26//27 27//27
f 25//28 28//28 29//28
f 30//29 31//29 28//29
f 27//30 31//30 32//30
f 29//31 31//31 26//31
f 30//32 27//32 32//32
f 33//33 34//33 35//33
f 36//34 37//34 33//34
f 38//35 39//35 36//35
f 40//36 41//36 38//36
f 42//37 43//37 40//37
f 44//38 45//38 42//38
f 46//39 47//39 44//39
f 48//40 49//40 46//40
f 50//41 51//41 48//41
f 52//42 53//42 50//42
f 54//43 55//44 52//43
f 56//45 57//45 54//45
f 58//46 59//46 56//46
f 60//47 61//47 58//47
f 62//48 63//48 60//48
f 64//49 65//50 62//49
f 66//51 67//51 64//51
f 68//52 69//52 66//52
f 70//53 71//53 68//53
f 72//54 73//54 70//54
f 74//55 75//55 72//55
f 76//56 77//56 74//56
f 78//57 79//57 76//57
f 80//58 81//58 78//58
f 82//59 83//59 80//59
f 84//60 85//60 82//60
f 86//61 87//62 84//61
f 88//63 89//63 86//63
f 90//64 91//64 88//64
f 92//65 93//65 90//65
f 67//1 91//1 34//1
f 35//66 94//67 95//66
f 95//68 96//68 92//68
f 66//69 50//69 33//69
f 1//1 5//1 2//1
f 4//2 11//2 2//2
f 6//3 15//3 7//3
f 2//4 11//4 9//5
f 4//6 5//70 1//7
f 10//9 9//71 11//10
f 12//12 16//69 13//13
f 8//15 10//8 1//7
f 9//17 10//72 14//18
f 3//4 9//5 7//20
f 6//1 1//1 3//1
f 8//15 12//73 14//21
f 7//20 9//5 13//22
f 7//24 16//74 12//25
f 17//27 21//27 18//27
f 17//28 22//28 20//28
f 22//29 24//29 23//29
f 19//30 18//30 23//30
f 21//31 20//31 23//31
f 22//32 17//32 19//32
f 25//27 29//27 26//27
f 25//28 30//28 28//28
f 30//29 32//29 31//29
f 27//30 26//30 31//30
f 29//31 28//31 31//31
f 30//32 25//32 27//32
f 33//33 37//75 34//33
f 36//34 39//34 37//34
f 38//35 41//35 39//35
f 40//36 43//36 41//36
f 42//37 45//37 43//37
f 44//38 47//38 45//38
f 46//39 49//39 47//39
f 48//40 51//40 49//40
f 50//41 53//41 51//41
f 52//42 55//42 53//42
f 54//43 57//43 55//44
f 56//45 59//45 57//45
f 58//46 61//46 59//46
f 60//47 63//47 61//47
f 62//48 65//48 63//48
f 64//49 67//50 65//50
f 66//51 69//76 67//51
f 68//52 71//52 69//52
f 70//53 73//53 71//53
f 72//54 75//54 73//54
f 74//55 77//55 75//55
f 76//56 79//56 77//56
f 78//57 81//57 79//57
f 80//58 83//58 81//58
f 82//59 85//59 83//59
f 84//60 87//60 85//60
f 86//61 89//61 87//62
f 88//63 91//63 89//63
f 90//64 93//64 91//64
f 92//65 96//65 93//65
f 34//1 37//1 39//1
f 39//1 41//1 43//1
f 43//1 45//1 47//1
f 47//1 49//1 51//1
f 51//1 53//1 55//1
f 55//1 57//1 59//1
f 59//1 61//1 63//1
f 63//1 65//1 67//1
f 67//1 69//1 71//1
f 71//1 73//1 75//1
f 75//1 77//1 79//1
f 79//1 81//1 83//1
f 83//1 85//1 87//1
f 87//1 89//1 91//1
f 91//1 93//1 96//1
f 96//1 94//1 34//1
f 34//1 39//1 43//1
f 43//1 47//1 51//1
f 51//1 55//1 59//1
f 59//1 63//1 67//1
f 67//1 71//1 75//1
f 75//1 79//1 83//1
f 83//1 87//1 91//1
f 91//1 96//1 34//1
f 34//1 43//1 51//1
f 51//1 59//1 34//1
f 67//1 75//1 83//1
f 83//1 91//1 67//1
f 34//1 59//1 67//1
f 35//66 34//67 94//67
f 95//68 94//68 96//68
f 33//69 35//69 90//69
f 95//69 92//69 90//69
f 90//69 88//69 82//69
f 86//69 84//69 82//69
f 82//69 80//69 74//69
f 78//69 76//69 74//69
f 74//69 72//69 66//69
f 70//69 68//69 66//69
f 66//69 64//69 58//69
f 62//69 60//69 58//69
f 58//69 56//69 50//69
f 54//69 52//69 50//69
f 50//69 48//69 42//69
f 46//69 44//69 42//69
f 42//69 40//69 33//69
f 38//69 36//69 33//69
f 35//69 95//69 90//69
f 88//69 86//69 82//69
f 80//69 78//69 74//69
f 72//69 70//69 66//69
f 64//69 62//69 58//69
f 56//69 54//69 50//69
f 48//69 46//69 42//69
f 40//69 38//69 33//69
f 33//69 90//69 82//69
f 82//69 74//69 66//69
f 66//69 58//69 50//69
f 50//69 42//69 33//69
f 33//69 82//69 66//69
