# Blender v2.78 (sub 0) OBJ File: ''
# www.blender.org
mtllib upper.mtl
o Plane.001
v 0.035000 -0.026055 -0.019500
v 0.035000 0.025945 -0.022500
v 0.035000 0.025945 -0.019500
v 0.033000 0.025945 -0.022500
v 0.033000 0.025945 -0.019500
v 0.033000 -0.026055 -0.019500
v 0.035000 -0.026055 -0.022500
v 0.033000 -0.026055 -0.022500
v 0.000330 0.017821 -0.022500
v -0.001277 0.003861 -0.019466
v -0.006360 -0.001404 -0.019500
v -0.002269 -0.004018 -0.019222
v 0.000000 0.010283 -0.019493
v 0.001277 0.010029 -0.019496
v 0.000330 0.017821 -0.019500
v -0.002269 -0.004018 -0.022222
v 0.000000 0.010283 -0.022493
v -0.003459 0.016844 -0.022500
v -0.001277 0.003861 -0.022466
v 0.000000 0.003607 -0.022468
v -0.003459 0.016844 -0.019500
v -0.006761 0.015135 -0.019500
v -0.008392 0.013381 -0.019500
v -0.006761 0.015135 -0.022500
v -0.008392 0.013381 -0.022500
v -0.009609 0.011215 -0.019500
v -0.009609 0.011215 -0.022500
v -0.010328 0.008786 -0.019500
v -0.010328 0.008786 -0.022500
v -0.010500 0.006258 -0.019500
v -0.010500 0.006258 -0.022500
v -0.010064 0.003974 -0.019500
v -0.010064 0.003974 -0.022500
v -0.008818 0.001259 -0.019500
v -0.008818 0.001259 -0.022500
v -0.003338 0.006945 -0.019473
v -0.003084 0.005668 -0.022468
v -0.003338 0.006945 -0.022472
v -0.003084 0.008222 -0.019478
v -0.003084 0.008222 -0.022478
v -0.003084 0.005668 -0.019468
v -0.002360 0.004585 -0.022466
v -0.002360 0.009305 -0.019484
v -0.002360 0.009305 -0.022484
v -0.002360 0.004585 -0.019466
v -0.001277 0.010029 -0.019489
v -0.001277 0.010029 -0.022489
v 0.000000 0.003607 -0.019468
v 0.001277 0.003861 -0.019472
v 0.001277 0.010029 -0.022496
v 0.002360 0.004585 -0.019477
v 0.001277 0.003861 -0.022472
v 0.002360 0.009305 -0.022495
v 0.002360 0.009305 -0.019495
v 0.003084 0.005668 -0.019483
v 0.002360 0.004585 -0.022477
v 0.003084 0.008222 -0.022493
v 0.003084 0.008222 -0.019493
v 0.003338 0.006945 -0.019489
v 0.003084 0.005668 -0.022483
v 0.003338 0.006945 -0.022489
v 0.035000 -0.026055 0.025000
v 0.035000 0.025945 0.022000
v 0.035000 0.025945 0.025000
v 0.033000 0.025945 0.022000
v 0.033000 0.025945 0.025000
v 0.033000 -0.026055 0.025000
v 0.035000 -0.026055 0.022000
v 0.033000 -0.026055 0.022000
v 0.000330 0.017821 0.022000
v -0.003459 0.016844 0.025000
v -0.010328 0.008786 0.025000
v -0.008818 0.001259 0.025000
v -0.002269 -0.004018 0.022278
v -0.008818 0.001259 0.022000
v -0.010328 0.008786 0.022000
v -0.003459 0.016844 0.022000
v 0.000330 0.017821 0.025000
v -0.006761 0.015135 0.025000
v -0.008392 0.013381 0.025000
v -0.006761 0.015135 0.022000
v -0.008392 0.013381 0.022000
v -0.009609 0.011215 0.025000
v -0.009609 0.011215 0.022000
v -0.010500 0.006258 0.025000
v -0.010500 0.006258 0.022000
v -0.010064 0.003974 0.025000
v -0.010064 0.003974 0.022000
v -0.006360 -0.001404 0.025000
v -0.002269 -0.004018 0.025278
v 0.038000 0.028945 -0.029000
v 0.035000 0.028945 0.029000
v 0.038000 0.028945 0.029000
v 0.035000 -0.029055 0.029000
v 0.038000 -0.029055 0.029000
v 0.038000 -0.029055 -0.029000
v 0.035000 0.028945 -0.029000
v 0.035000 -0.029055 -0.029000
v -0.006360 -0.001404 -0.022500
v -0.006360 -0.001404 0.022000
vn 1.0000 0.0000 0.0000
vn 0.0000 1.0000 0.0000
vn -0.0008 0.0023 1.0000
vn 0.0000 0.0000 1.0000
vn 0.0000 -1.0000 0.0000
vn -0.0035 -0.0040 -1.0000
vn 0.0000 0.0000 -1.0000
vn -0.2455 0.9694 0.0000
vn -0.2413 0.9704 0.0000
vn -0.0059 0.0178 0.9998
vn -0.0230 0.0156 0.9996
vn -0.0060 0.0270 0.9996
vn 0.0021 0.0014 1.0000
vn 0.0005 0.0006 1.0000
vn -0.0001 0.0008 1.0000
vn -0.5299 -0.8481 0.0000
vn -0.5342 -0.8453 -0.0000
vn -0.0021 -0.0014 -1.0000
vn 0.0003 -0.0012 -1.0000
vn 0.0001 -0.0008 -1.0000
vn 0.0059 -0.0178 -0.9998
vn -0.0011 -0.0319 -0.9995
vn 0.0060 -0.0270 -0.9996
vn -0.2497 0.9683 0.0000
vn -0.4596 0.8881 -0.0000
vn -0.7323 0.6810 -0.0000
vn -0.8718 0.4898 -0.0000
vn -0.9589 0.2838 -0.0000
vn -0.9977 0.0679 -0.0000
vn -0.9823 -0.1875 -0.0000
vn -0.9089 -0.4171 -0.0000
vn -0.7348 -0.6783 -0.0000
vn -0.5384 -0.8427 0.0000
vn -0.5341 -0.8454 -0.0000
vn 0.9808 0.1951 0.0000
vn 0.9808 -0.1951 0.0000
vn 0.8313 0.5558 0.0000
vn 0.8313 -0.5558 0.0000
vn 0.5558 0.8313 0.0000
vn 0.5558 -0.8313 0.0000
vn 0.1951 0.9808 -0.0000
vn 0.1951 -0.9808 0.0000
vn -0.1951 0.9808 -0.0000
vn -0.1951 -0.9808 -0.0000
vn -0.5558 0.8313 -0.0000
vn -0.5558 -0.8313 -0.0000
vn -0.8313 0.5558 -0.0000
vn -0.8313 -0.5558 -0.0000
vn -0.9808 0.1951 -0.0000
vn -0.9808 -0.1951 -0.0000
vn 0.0029 0.0042 1.0000
vn -0.0043 -0.0020 -1.0000
vn -0.9590 0.2835 0.0000
vn -1.0000 0.0000 -0.0000
vn 0.0034 0.0039 1.0000
vn 0.0012 -0.0022 -1.0000
vn -0.0040 -0.0011 1.0000
vn -0.0039 -0.0025 1.0000
vn -0.0049 0.0006 1.0000
vn -0.0036 -0.0027 1.0000
vn 0.0010 0.0023 1.0000
vn -0.0041 0.0027 1.0000
vn -0.0037 0.0007 1.0000
vn -0.0037 -0.0002 1.0000
vn -0.0053 -0.0003 1.0000
vn -0.0027 0.0021 1.0000
vn -0.0033 0.0015 1.0000
vn 0.0014 0.0036 1.0000
vn -0.0018 0.0025 1.0000
vn 0.0058 0.0142 0.9999
vn -0.0183 0.0399 0.9990
vn 0.0011 0.0319 0.9995
vn -0.0011 0.0018 1.0000
vn 0.0054 0.0028 1.0000
vn 0.0038 0.0027 1.0000
vn -0.0024 0.0000 1.0000
vn 0.0028 0.0025 1.0000
vn 0.0028 -0.0012 -1.0000
vn 0.0020 -0.0017 -1.0000
vn 0.0013 -0.0044 -1.0000
vn 0.0010 -0.0016 -1.0000
vn -0.0019 -0.0029 -1.0000
vn 0.0043 -0.0027 -1.0000
vn 0.0011 -0.0018 -1.0000
vn 0.0015 -0.0023 -1.0000
vn 0.0055 -0.0013 -1.0000
vn -0.0010 -0.0043 -1.0000
vn 0.0024 -0.0000 -1.0000
vn -0.0005 -0.0006 -1.0000
vn 0.0039 0.0002 -1.0000
vn 0.0041 0.0011 -1.0000
vn 0.0039 0.0025 -1.0000
vn 0.0048 -0.0002 -1.0000
vn 0.0036 0.0027 -1.0000
vn 0.0230 -0.0156 -0.9996
vn -0.0010 -0.0023 -1.0000
vn -0.0058 -0.0142 -0.9999
vn 0.0183 -0.0399 -0.9990
vn 0.0043 0.0020 1.0000
vn -0.0029 -0.0042 -1.0000
vn -0.0175 0.0100 0.9998
vn -0.0059 0.0094 0.9999
vn -0.0347 0.0121 0.9993
vn 0.0175 -0.0100 -0.9998
vn 0.0347 -0.0121 -0.9993
vn 0.0059 -0.0094 -0.9999
usemtl None.001
s 1
f 1//1 2//1 3//1
f 4//2 3//2 2//2
f 5//3 1//4 3//4
f 6//5 7//5 1//5
f 8//6 2//7 7//7
f 9//8 5//9 4//9
f 10//10 11//11 12//12
f 13//13 14//14 15//15
f 6//16 16//17 8//16
f 17//18 18//19 9//20
f 19//21 20//22 16//23
f 9//8 21//24 15//8
f 18//25 22//25 21//25
f 23//26 24//26 25//26
f 26//27 25//27 27//27
f 28//28 27//28 29//28
f 30//29 29//29 31//29
f 32//30 31//30 33//30
f 34//31 33//31 35//31
f 35//32 11//32 34//32
f 11//33 16//17 12//34
f 36//35 37//35 38//35
f 39//36 38//36 40//36
f 41//37 42//37 37//37
f 43//38 40//38 44//38
f 10//39 42//39 45//39
f 46//40 44//40 47//40
f 48//41 19//41 10//41
f 13//42 47//42 17//42
f 49//43 20//43 48//43
f 14//44 17//44 50//44
f 51//45 52//45 49//45
f 14//46 53//46 54//46
f 55//47 56//47 51//47
f 54//48 57//48 58//48
f 59//49 60//49 55//49
f 58//50 61//50 59//50
f 62//1 63//1 64//1
f 65//2 64//2 63//2
f 66//51 62//4 64//4
f 67//5 68//5 62//5
f 69//52 63//7 68//7
f 70//8 66//9 65//9
f 71//4 72//4 73//4
f 67//16 74//17 69//16
f 75//7 76//7 77//7
f 70//8 71//24 78//8
f 77//25 79//25 71//25
f 80//26 81//26 82//26
f 83//27 82//27 84//27
f 72//28 84//53 76//53
f 85//29 76//29 86//29
f 87//30 86//30 88//30
f 73//31 88//31 75//31
f 75//32 89//32 73//32
f 89//33 74//17 90//34
f 91//2 92//2 93//2
f 94//4 93//4 92//4
f 95//1 91//1 93//1
f 96//7 97//7 91//7
f 98//54 92//54 97//54
f 94//5 96//5 95//5
f 1//1 7//1 2//1
f 4//2 5//2 3//2
f 5//3 6//55 1//4
f 6//5 8//5 7//5
f 8//6 4//56 2//7
f 9//8 15//8 5//9
f 32//57 34//58 41//59
f 11//11 10//10 45//60
f 6//55 5//3 55//61
f 5//3 59//62 55//61
f 34//58 11//11 45//60
f 28//63 30//64 36//65
f 23//66 26//67 36//65
f 21//68 22//69 36//65
f 36//65 22//69 23//66
f 26//67 28//63 36//65
f 6//55 55//61 51//70
f 6//55 51//70 12//12
f 36//65 30//64 32//57
f 41//59 36//65 32//57
f 51//70 49//71 12//12
f 49//71 48//72 12//12
f 45//60 41//59 34//58
f 48//72 10//10 12//12
f 5//3 15//15 58//73
f 21//68 36//65 39//74
f 21//68 39//74 43//75
f 58//73 59//62 5//3
f 54//76 58//73 15//15
f 21//68 43//75 46//77
f 21//68 46//77 13//13
f 54//76 15//15 14//14
f 21//68 13//13 15//15
f 6//16 12//34 16//17
f 27//78 25//79 40//80
f 24//81 18//19 47//82
f 4//56 61//83 57//84
f 4//56 57//84 9//20
f 18//19 17//18 47//82
f 29//85 27//78 40//80
f 40//80 38//86 29//85
f 44//87 40//80 25//79
f 25//79 24//81 44//87
f 57//84 53//88 9//20
f 53//88 50//89 9//20
f 47//82 44//87 24//81
f 50//89 17//18 9//20
f 31//90 29//85 38//86
f 31//90 38//86 33//91
f 35//92 37//93 42//94
f 16//23 99//95 19//21
f 4//56 8//6 60//96
f 60//96 61//83 4//56
f 56//97 60//96 8//6
f 99//95 42//94 19//21
f 38//86 37//93 33//91
f 37//93 35//92 33//91
f 56//97 8//6 16//23
f 52//98 56//97 16//23
f 35//92 42//94 99//95
f 20//22 52//98 16//23
f 9//8 18//24 21//24
f 18//25 24//25 22//25
f 23//26 22//26 24//26
f 26//27 23//27 25//27
f 28//28 26//28 27//28
f 30//29 28//29 29//29
f 32//30 30//30 31//30
f 34//31 32//31 33//31
f 35//32 99//32 11//32
f 11//33 99//33 16//17
f 36//35 41//35 37//35
f 39//36 36//36 38//36
f 41//37 45//37 42//37
f 43//38 39//38 40//38
f 10//39 19//39 42//39
f 46//40 43//40 44//40
f 48//41 20//41 19//41
f 13//42 46//42 47//42
f 49//43 52//43 20//43
f 14//44 13//44 17//44
f 51//45 56//45 52//45
f 14//46 50//46 53//46
f 55//47 60//47 56//47
f 54//48 53//48 57//48
f 59//49 61//49 60//49
f 58//50 57//50 61//50
f 62//1 68//1 63//1
f 65//2 66//2 64//2
f 66//51 67//99 62//4
f 67//5 69//5 68//5
f 69//52 65//100 63//7
f 70//8 78//8 66//9
f 67//99 66//51 90//101
f 78//102 71//4 89//103
f 79//4 80//4 71//4
f 83//4 72//4 71//4
f 85//4 87//4 72//4
f 73//4 89//103 71//4
f 90//101 66//51 78//102
f 71//4 80//4 83//4
f 72//4 87//4 73//4
f 89//103 90//101 78//102
f 67//16 90//34 74//17
f 65//100 69//52 74//104
f 74//104 100//105 70//106
f 75//7 88//7 76//7
f 86//7 76//7 88//7
f 84//7 82//7 77//7
f 81//7 77//7 82//7
f 70//106 65//100 74//104
f 100//105 75//7 77//7
f 76//7 84//7 77//7
f 77//7 70//106 100//105
f 70//8 77//24 71//24
f 77//25 81//25 79//25
f 80//26 79//26 81//26
f 83//27 80//27 82//27
f 72//28 83//53 84//53
f 85//29 72//29 76//29
f 87//30 85//30 86//30
f 73//31 87//31 88//31
f 75//32 100//32 89//32
f 89//33 100//33 74//17
f 91//2 97//2 92//2
f 94//4 95//4 93//4
f 95//1 96//1 91//1
f 96//7 98//7 97//7
f 98//54 94//54 92//54
f 94//5 98//5 96//5
